<svg xmlns="http://www.w3.org/2000/svg" width="24" height="24" viewBox="0 0 24 24" fill="none" aria-hidden="true"><path fill="currentColor" fill-rule="evenodd" clip-rule="evenodd" d="M12 2.75c.46 0 .88.26 1.08.67l.7 1.43a6.8 6.8 0 0 1 1.78.72l1.52-.52c.43-.15.92-.04 1.24.28l1.02 1.02c.33.33.44.81.29 1.25l-.52 1.51c.31.56.55 1.16.71 1.79l1.43.7c.41.2.67.62.67 1.08v1.44c0 .46-.26.88-.67 1.08l-1.43.7a6.8 6.8 0 0 1-.71 1.79l.52 1.51c.15.44.04.92-.29 1.25l-1.02 1.02c-.32.32-.81.43-1.24.28l-1.52-.52a6.8 6.8 0 0 1-1.78.72l-.7 1.43c-.2.41-.62.67-1.08.67h-1.44c-.46 0-.88-.26-1.08-.67l-.7-1.43a6.8 6.8 0 0 1-1.78-.72l-1.52.52c-.43.15-.92.04-1.24-.28l-1.02-1.02a1.2 1.2 0 0 1-.29-1.25l.52-1.51a6.8 6.8 0 0 1-.71-1.79l-1.43-.7a1.2 1.2 0 0 1-.67-1.08v-1.44c0-.46.26-.88.67-1.08l1.43-.7c.16-.63.4-1.23.71-1.79L2.95 7.6a1.2 1.2 0 0 1 .29-1.25l1.02-1.02c.32-.32.81-.43 1.24-.28l1.52.52c.55-.32 1.15-.56 1.78-.72l.7-1.43c.2-.41.62-.67 1.08-.67zm-.72 2.04-.74 1.52a1 1 0 0 1-.7.54 4.9 4.9 0 0 0-1.95.79 1 1 0 0 1-.88.12l-1.61-.55-.45.45.55 1.61a1 1 0 0 1-.12.88 4.9 4.9 0 0 0-.79 1.95 1 1 0 0 1-.54.7l-1.52.74v.64l1.52.74a1 1 0 0 1 .54.7c.14.7.41 1.36.79 1.95a1 1 0 0 1 .12.88l-.55 1.61.45.45 1.61-.55a1 1 0 0 1 .88.12c.59.38 1.25.65 1.95.79a1 1 0 0 1 .7.54l.74 1.52h.64l.74-1.52a1 1 0 0 1 .7-.54 4.9 4.9 0 0 0 1.95-.79 1 1 0 0 1 .88-.12l1.61.55.45-.45-.55-1.61a1 1 0 0 1 .12-.88c.38-.59.65-1.25.79-1.95a1 1 0 0 1 .54-.7l1.52-.74v-.64l-1.52-.74a1 1 0 0 1-.54-.7 4.9 4.9 0 0 0-.79-1.95 1 1 0 0 1-.12-.88l.55-1.61-.45-.45-1.61.55a1 1 0 0 1-.88-.12 4.9 4.9 0 0 0-1.95-.79 1 1 0 0 1-.7-.54l-.74-1.52z"/><path fill="currentColor" d="M8.4 8.23c.38-.16.82-.08 1.12.22L12 10.93l2.48-2.48a1.04 1.04 0 0 1 1.77.73v5.64a1.04 1.04 0 0 1-1.77.73L12 13.07l-2.48 2.48a1.04 1.04 0 0 1-1.77-.73V9.18c0-.42.25-.79.65-.95m1.43 3.46v1.87l.94-.93zm4.34 0-.94.94.94.93z"/></svg>
